<?xml version="1.0" encoding="iso-8859-1"?>
<title>Clients</title>
<!-- Uploaded to: SVG Repo, www.svgrepo.com, Generator: SVG Repo Mixer Tools -->
<svg fill="#000000" height="800px" width="800px" version="1.1" id="Layer_1" xmlns="http://www.w3.org/2000/svg" xmlns:xlink="http://www.w3.org/1999/xlink" 
	 viewBox="0 0 512 512" xml:space="preserve">
<g>
	<g>
		<path d="M495.427,76.963c-38.725,0-88.834-8.26-134.044-22.096C313.655,40.26,277.491,21.315,262.163,2.89
			C260.64,1.059,258.382,0,256.001,0c-2.381,0-4.64,1.059-6.163,2.89c-15.327,18.424-51.492,37.369-99.22,51.977
			c-45.21,13.836-95.32,22.096-134.044,22.096c-2.162,0-4.234,0.873-5.743,2.423s-2.328,3.643-2.271,5.805
			c0.089,3.365,2.526,83.497,33.544,176.552c18.277,54.831,42.738,102.589,72.708,141.945
			c37.673,49.474,84.158,85.716,138.164,107.719c0.969,0.394,1.997,0.592,3.025,0.592c1.028,0,2.055-0.198,3.025-0.592
			c54.008-22.003,100.492-58.245,138.165-107.719c29.969-39.356,54.431-87.114,72.708-141.945
			c31.046-93.141,33.546-176.002,33.546-176.764C503.444,80.552,499.855,76.963,495.427,76.963z M454.55,257.083
			c-17.733,53.072-41.372,99.193-70.262,137.084C349.109,440.303,305.963,474.316,256,495.308
			c-49.965-20.992-93.113-55.007-128.291-101.147c-28.89-37.891-52.529-84.015-70.261-137.089
			c-24.77-74.138-30.982-141.494-32.441-164.195c38.881-1.076,86.854-9.382,130.303-22.68c27.396-8.384,74.877-25.599,100.69-50.459
			c25.815,24.86,73.295,42.074,100.69,50.458c43.449,13.297,91.422,21.603,130.303,22.68
			C485.535,115.581,479.323,182.942,454.55,257.083z"/>
	</g>
</g>
<g>
	<g>
		<path d="M464.678,112.16c-1.348-1.674-3.311-2.736-5.449-2.949c-62.753-6.25-148.522-28.05-198.674-62.66
			c-2.741-1.891-6.367-1.891-9.107,0c-50.152,34.612-135.922,56.412-198.675,62.661c-2.138,0.213-4.101,1.275-5.449,2.949
			c-1.348,1.673-1.967,3.818-1.719,5.953c4.252,36.622,16.027,108.619,47.115,179.33c37.291,84.817,91.081,144.189,159.876,176.469
			c1.078,0.507,2.242,0.759,3.405,0.759c1.163,0,2.327-0.252,3.406-0.759c158.151-74.206,197.439-273.542,206.99-355.8
			C466.644,115.978,466.024,113.834,464.678,112.16z M256,457.763C204.538,432.5,91.31,351.823,62.502,124.285
			c62.042-7.25,142.775-28.492,193.497-61.487c50.722,32.994,131.454,54.235,193.496,61.486
			C420.685,351.824,307.46,432.502,256,457.763z"/>
	</g>
</g>
<g>
	<g>
		<path d="M281.122,256.614v-82.35c15.795,5.753,26.722,16.646,26.722,28.829c0,4.427,3.589,8.017,8.017,8.017
			c4.427,0,8.017-3.589,8.017-8.017c0-13.712-7.46-26.392-21.007-35.705c-6.361-4.373-13.742-7.754-21.749-10.035v-12.515
			c0-4.428-3.589-8.017-8.017-8.017c-4.427,0-8.017,3.588-8.017,8.017v9.525c-2.99-0.285-6.021-0.439-9.086-0.439
			c-3.062-0.001-6.095,0.153-9.086,0.439v-9.525c0-4.428-3.589-8.017-8.017-8.017c-4.427,0-8.017,3.588-8.017,8.017v12.515
			c-8.006,2.281-15.388,5.662-21.749,10.035c-13.546,9.313-21.007,21.993-21.007,35.705c0,27.917,18.468,42.091,42.755,52.297v82.35
			c-15.795-5.753-26.722-16.646-26.722-28.828c0-4.428-3.589-8.017-8.017-8.017s-8.017,3.588-8.017,8.017
			c0,13.712,7.46,26.391,21.007,35.704c6.361,4.373,13.742,7.754,21.749,10.036v12.515c0,4.427,3.589,8.017,8.017,8.017
			c4.427,0,8.017-3.589,8.017-8.017v-9.525c2.99,0.285,6.022,0.439,9.086,0.439c3.063,0,6.096-0.155,9.086-0.439v9.525
			c0,4.427,3.589,8.017,8.017,8.017c4.427,0,8.017-3.589,8.017-8.017v-12.515c8.007-2.281,15.388-5.662,21.749-10.036
			c13.547-9.313,21.007-21.993,21.007-35.704C323.877,280.994,305.409,266.821,281.122,256.614z M230.885,237.79
			c-17.742-8.522-26.722-18.423-26.722-34.698c0-12.182,10.927-23.075,26.722-28.829V237.79z M246.917,170.5
			c2.961-0.351,5.994-0.544,9.086-0.544c3.091,0,6.125,0.193,9.086,0.544v80.086c-2.177-0.746-4.376-1.478-6.591-2.204
			c-4.093-1.34-7.945-2.66-11.58-3.982V170.5z M265.09,341.502c-2.961,0.352-5.994,0.545-9.086,0.545
			c-3.091,0-6.126-0.195-9.086-0.545v-80.086c2.178,0.746,4.377,1.479,6.592,2.204c4.093,1.339,7.945,2.66,11.579,3.982V341.502z
			 M281.123,337.739v-63.527c17.742,8.524,26.722,18.424,26.722,34.699C307.845,321.094,296.918,331.987,281.123,337.739z"/>
	</g>
</g>
</svg>